<svg width="358" height="215" viewBox="0 0 358 215" fill="none" xmlns="http://www.w3.org/2000/svg">
<g id="Group 7">
<g id="Group 4">
<ellipse id="Oval" cx="100" cy="107.5" rx="100" ry="107.5" fill="#2C6269"/>
<path id="Combined Shape" fill-rule="evenodd" clip-rule="evenodd" d="M258 215C313.228 215 358 166.871 358 107.5C358 48.1294 313.228 0 258 0C202.772 0 158 48.1294 158 107.5C158 166.871 202.772 215 258 215ZM258 142.975C276.225 142.975 291 127.092 291 107.5C291 87.9077 276.225 72.025 258 72.025C239.775 72.025 225 87.9077 225 107.5C225 127.092 239.775 142.975 258 142.975Z" fill="#012F34"/>
<rect id="Rectangle" x="358" y="46.225" width="43" height="46.225" transform="rotate(180 358 46.225)" fill="#79C8C7"/>
<path id="Combined Shape Copy" fill-rule="evenodd" clip-rule="evenodd" d="M233.514 215C288.742 215 333.514 166.871 333.514 107.5C333.514 48.1294 288.742 0 233.514 0C178.285 0 133.514 48.1294 133.514 107.5C133.514 166.871 178.285 215 233.514 215ZM233.514 142.975C251.739 142.975 266.514 127.092 266.514 107.5C266.514 87.9077 251.739 72.025 233.514 72.025C215.288 72.025 200.514 87.9077 200.514 107.5C200.514 127.092 215.288 142.975 233.514 142.975Z" fill="#F67E7E"/>
</g>
<path id="Combined Shape_2" fill-rule="evenodd" clip-rule="evenodd" d="M100 0H0V4.3H100V0ZM100 8.6H0V12.9H100V8.6ZM0 17.2H100V21.5H0V17.2ZM100 25.8H0V30.1H100V25.8ZM0 34.4H100V38.7H0V34.4ZM100 43H0V47.3H100V43Z" fill="#79C8C7"/>
</g>
</svg>
