<svg width="200" height="191" viewBox="0 0 200 191" fill="none" xmlns="http://www.w3.org/2000/svg">
<g id="Group 8">
<rect id="Rectangle" x="117" y="144" width="100" height="100" transform="rotate(180 117 144)" fill="#2C6269"/>
<path id="Combined Shape Copy" fill-rule="evenodd" clip-rule="evenodd" d="M100 229C155.228 229 200 184.228 200 129C200 73.7715 155.228 29 100 29C44.7715 29 0 73.7715 0 129C0 184.228 44.7715 229 100 229ZM100 162C118.225 162 133 147.225 133 129C133 110.775 118.225 96 100 96C81.7746 96 67 110.775 67 129C67 147.225 81.7746 162 100 162Z" fill="#004047"/>
<path id="Combined Shape" fill-rule="evenodd" clip-rule="evenodd" d="M117 100H17V104H117V100ZM117 108H17V112H117V108ZM17 116H117V120H17V116ZM117 124H17V128H117V124ZM17 132H117V136H17V132ZM117 140H17V144H117V140Z" fill="#F67E7E"/>
<path id="Combined Shape_2" fill-rule="evenodd" clip-rule="evenodd" d="M17 0H21V4H17V0ZM28 0H24V4H28V0ZM28 8H24V12H28V8ZM24 16H28V20H24V16ZM28 24H24V28H28V24ZM24 32H28V36H24V32ZM28 40H24V44H28V40ZM31 0H35V4H31V0ZM31 8H35V12H31V8ZM35 16H31V20H35V16ZM31 24H35V28H31V24ZM35 32H31V36H35V32ZM31 40H35V44H31V40ZM17 8H21V12H17V8ZM38 0H42V4H38V0ZM38 8H42V12H38V8ZM42 16H38V20H42V16ZM38 24H42V28H38V24ZM42 32H38V36H42V32ZM38 40H42V44H38V40ZM17 16H21V20H17V16ZM45 0H49V4H45V0ZM45 8H49V12H45V8ZM49 16H45V20H49V16ZM45 24H49V28H45V24ZM49 32H45V36H49V32ZM45 40H49V44H45V40ZM17 24H21V28H17V24ZM52 0H56V4H52V0ZM52 8H56V12H52V8ZM56 16H52V20H56V16ZM52 24H56V28H52V24ZM56 32H52V36H56V32ZM52 40H56V44H52V40ZM17 32H21V36H17V32ZM59 0H63V4H59V0ZM59 8H63V12H59V8ZM63 16H59V20H63V16ZM59 24H63V28H59V24ZM63 32H59V36H63V32ZM59 40H63V44H59V40ZM17 40H21V44H17V40ZM66 0H70V4H66V0ZM66 8H70V12H66V8ZM70 16H66V20H70V16ZM66 24H70V28H66V24ZM70 32H66V36H70V32ZM66 40H70V44H66V40Z" fill="#79C8C7"/>
</g>
</svg>
